<svg width="100" height="100" viewBox="0 0 100 100" fill="none" xmlns="http://www.w3.org/2000/svg">
<path d="M66.8 62.1L66.3 62.6L59 55.3C63.3 50.2 65.9 43.6 65.9 36.4C65.9 28.7 62.8 21.2 57.3 15.7C51.8 10.1 44.2 7 36.5 7C20.3 7 7.2 20.2 7.2 36.4C7.2 44.3 10.3 51.7 15.9 57.3C21.4 62.8 28.7 65.8 36.4 65.8C36.5 65.8 36.5 65.8 36.6 65.8C43.8 65.8 50.4 63.2 55.5 58.9L62.8 66.2L62 66.9C61 67.9 61 69.5 62 70.4L82.8 91.2C85.1 93.5 88.9 93.5 91.2 91.2C93.5 88.9 93.5 85.1 91.2 82.8L70.3 62.1C69.3 61.1 67.8 61.1 66.8 62.1ZM36.5 60.7H36.4C30 60.7 23.9 58.2 19.4 53.7C14.8 49.1 12.2 42.9 12.2 36.4C12.2 22.9 23.1 12 36.5 12C42.9 12 49.1 14.6 53.7 19.2C58.3 23.8 60.9 30 60.9 36.4C60.9 49.8 50 60.7 36.5 60.7Z" fill="white"/>
<path d="M16.8 36.4C16.8 38.5 17.1 40.5 17.7 42.5C18.2 43.9 19.8 44.6 21.2 44C22.3 43.5 22.9 42.2 22.5 41C22 39.5 21.8 38 21.8 36.4C21.8 32.7 23.2 29.2 25.7 26.5C26.5 25.6 26.5 24.2 25.8 23.3C24.8 22.1 23.1 22.1 22 23.2C18.7 26.7 16.8 31.4 16.8 36.4Z" fill="white"/>
</svg>
